# xmcd
#
# Track frame offsets:
#	150
#	8397
#	17334
#	32897
#	50153
#	64589
#	79747
#	90762
#	106089
#	116378
#	131782
#	145705
#	162630
#
# Disc length: 2747 seconds
#
# Revision: 1
# Processed by: cddbd v1.4PL0 Copyright (c) Steve Scherf et al.
# Submitted via: audiograbber 1.80
#
DISCID=960ab90d
DTITLE=Steve Harrison - Cross Country Live
DYEAR=1900
DGENRE=
TTITLE0=Never been to Nashville
TTITLE1=Bank Job
TTITLE2=Three Words
TTITLE3=Cajun Moon
TTITLE4=Let's play tonight
TTITLE5=Reasons I stay
TTITLE6=My Radio
TTITLE7=Foolin' around
TTITLE8=Aires above the ground
TTITLE9=Painted Desert
TTITLE10=High Rollin' Skies
TTITLE11=Jersey Devil
TTITLE12=Meat and Bread and Beer
EXTD=
EXTT0=
EXTT1=
EXTT2=
EXTT3=
EXTT4=
EXTT5=
EXTT6=
EXTT7=
EXTT8=
EXTT9=
EXTT10=
EXTT11=
EXTT12=
PLAYORDER=
